<svg xmlns="http://www.w3.org/2000/svg" width="720" height="404" viewBox="0 0 720 404" role="img" aria-label="3X-UI (РФ) · Настройки Xray → Маршрутизация → Создать правило"><title>3X-UI (РФ) · Настройки Xray → Маршрутизация → Создать правило</title><style>.s{font-family:Inter, -apple-system, 'Segoe UI', Roboto, 'Helvetica Neue', Arial, sans-serif}.m{font-family:'JetBrains Mono', ui-monospace, SFMono-Regular, Menlo, Consolas, monospace}</style><rect x="0.5" y="0.5" width="719" height="403" rx="14" fill="#0d1117" stroke="#30363d" stroke-width="1" /><path d="M1 44 H719" stroke="#30363d"/><circle cx="22" cy="22" r="6" fill="#ff5f57"/><circle cx="40" cy="22" r="6" fill="#febc2e"/><circle cx="58" cy="22" r="6" fill="#28c840"/><text x="360.0" y="27" class="s" font-size="13" fill="#8b949e" font-weight="500" text-anchor="middle">3X-UI (РФ) · Настройки Xray → Маршрутизация → Создать правило</text><text x="158" y="89" class="s" font-size="14" fill="#8b949e" font-weight="400" text-anchor="end">Source IPs</text><rect x="174" y="70" width="486" height="30" rx="7" fill="#161b22" stroke="#30363d" stroke-width="1" /><text x="186" y="90" class="m" font-size="13.5" fill="#8b949e" font-weight="400" text-anchor="start"></text><text x="158" y="141" class="s" font-size="14" fill="#8b949e" font-weight="400" text-anchor="end">Domain</text><rect x="174" y="122" width="486" height="30" rx="7" fill="#161b22" stroke="#30363d" stroke-width="1" /><text x="186" y="142" class="m" font-size="13.5" fill="#8b949e" font-weight="400" text-anchor="start"></text><text x="158" y="193" class="s" font-size="14" fill="#8b949e" font-weight="400" text-anchor="end">IP</text><rect x="174" y="174" width="486" height="30" rx="7" fill="#161b22" stroke="#30363d" stroke-width="1" /><text x="186" y="194" class="m" font-size="13.5" fill="#8b949e" font-weight="400" text-anchor="start"></text><rect x="12" y="218" width="696" height="60" rx="10" fill="#3fb95022" stroke="#3fb950" stroke-width="1" /><text x="158" y="245" class="s" font-size="14" fill="#e6edf3" font-weight="400" text-anchor="end">Inbound Tags</text><rect x="174" y="226" width="486" height="30" rx="7" fill="#161b22" stroke="#3fb950" stroke-width="1" /><text x="186" y="246" class="s" font-size="13.5" fill="#e6edf3" font-weight="400" text-anchor="start">inbound-8443</text><path d="M638 238 l5 5 l5 -5" fill="none" stroke="#8b949e" stroke-width="1.6"/><text x="174" y="270" class="s" font-size="12" fill="#3fb950" font-weight="400" text-anchor="start">инбаунд REALITY на российском сервере</text><circle cx="688" cy="241" r="11" fill="#3fb950"/><text x="688" y="245.5" class="s" font-size="12" fill="#0d1117" font-weight="700" text-anchor="middle">1</text><rect x="12" y="288" width="696" height="60" rx="10" fill="#3fb95022" stroke="#3fb950" stroke-width="1" /><text x="158" y="315" class="s" font-size="14" fill="#e6edf3" font-weight="400" text-anchor="end">Outbound Tag</text><rect x="174" y="296" width="486" height="30" rx="7" fill="#161b22" stroke="#3fb950" stroke-width="1" /><text x="186" y="316" class="s" font-size="13.5" fill="#e6edf3" font-weight="400" text-anchor="start">to-world</text><path d="M638 308 l5 5 l5 -5" fill="none" stroke="#8b949e" stroke-width="1.6"/><text x="174" y="340" class="s" font-size="12" fill="#3fb950" font-weight="400" text-anchor="start">аутбаунд из предыдущего шага</text><circle cx="688" cy="311" r="11" fill="#3fb950"/><text x="688" y="315.5" class="s" font-size="12" fill="#0d1117" font-weight="700" text-anchor="middle">2</text><text x="24" y="374" class="s" font-size="12" fill="#8b949e" font-weight="400" text-anchor="start">Остальные поля оставьте пустыми — весь трафик инбаунда уйдёт за границу.</text></svg>